# Blender v2.92.0 OBJ File: ''
# www.blender.org
mtllib endpoint.mtl
o CIRImaps_CIRImaps.002
v 0.628525 0.905971 -0.635661
v 0.834244 4.338470 -0.635661
v 0.628525 0.905971 0.364339
v 0.834244 4.338470 0.364339
v 1.360635 7.736598 0.364339
v 1.360635 7.736598 -0.635661
v 2.203067 11.070466 -0.635661
v 2.203067 11.070466 0.364339
v 3.354131 14.310747 -0.635660
v 3.354131 14.310747 0.364340
v 4.803702 17.428938 -0.635660
v 4.803702 17.428938 0.364340
v 6.539027 20.397610 -0.635660
v 6.539027 20.397610 0.364340
v 8.544843 23.190651 -0.635660
v 8.544843 23.190651 0.364340
v -0.771358 0.905971 -0.635661
v -0.745570 0.726576 -0.635661
v -0.771358 0.905971 0.364339
v -0.745570 0.726576 0.364339
v -0.674590 0.559815 -0.635661
v -0.674590 0.559815 0.364339
v -0.563176 0.416866 -0.635661
v -0.563176 0.416866 0.364339
v -0.418797 0.307312 -0.635661
v -0.418797 0.307312 0.364339
v -0.251130 0.238497 -0.635661
v -0.251130 0.238497 0.364339
v -0.071416 0.215035 -0.635661
v -0.071416 0.215035 0.364339
v 0.108297 0.238497 -0.635661
v 0.108297 0.238497 0.364339
v 0.275964 0.307312 -0.635661
v 0.275964 0.307312 0.364339
v 0.420343 0.416866 -0.635661
v 0.420343 0.416866 0.364339
v 0.531757 0.559815 -0.635661
v 0.531757 0.559815 0.364339
v 0.602737 0.726576 0.364339
v 0.602737 0.726576 -0.635661
v -8.687675 23.190651 -0.635660
v -6.681859 20.397610 -0.635660
v -8.687675 23.190651 0.364340
v -6.681859 20.397610 0.364340
v -4.946534 17.428938 0.364340
v -4.946534 17.428938 -0.635660
v -3.496964 14.310747 -0.635660
v -3.496964 14.310747 0.364340
v -2.345900 11.070466 -0.635661
v -2.345900 11.070466 0.364339
v -1.503467 7.736598 -0.635661
v -1.503467 7.736598 0.364339
v -0.977076 4.338470 -0.635661
v -0.977076 4.338470 0.364339
v -0.071416 42.753403 -0.635659
v -2.133121 42.561760 -0.635659
v -0.071416 42.753403 0.364341
v -2.133121 42.561760 0.364341
v -4.128756 42.009686 -0.635659
v -4.128756 42.009686 0.364341
v -5.995821 41.114464 -0.635659
v -5.995821 41.114464 0.364341
v -7.675838 39.904137 -0.635659
v -7.675838 39.904137 0.364341
v -9.116192 38.416611 -0.635659
v -9.116192 38.416611 0.364341
v -10.271769 36.698475 -0.635659
v -10.271769 36.698475 0.364341
v -11.106378 34.803539 -0.635659
v -11.106378 34.803539 0.364341
v -11.593879 32.791157 -0.635660
v -11.593879 32.791157 0.364340
v -11.719004 30.724348 -0.635660
v -11.719004 30.724348 0.364340
v -11.477834 28.667849 -0.635660
v -11.477834 28.667849 0.364340
v -10.877921 26.686068 -0.635660
v -10.877921 26.686068 0.364340
v -9.938057 24.841074 -0.635660
v -9.938057 24.841074 0.364340
v 9.795224 24.841074 -0.635660
v 9.795224 24.841074 0.364340
v 10.735089 26.686068 -0.635660
v 10.735089 26.686068 0.364340
v 11.335002 28.667849 -0.635660
v 11.335002 28.667849 0.364340
v 11.576171 30.724348 -0.635660
v 11.576171 30.724348 0.364340
v 11.451047 32.791157 -0.635660
v 11.451047 32.791157 0.364340
v 10.963546 34.803539 -0.635659
v 10.963546 34.803539 0.364341
v 10.128936 36.698475 -0.635659
v 10.128936 36.698475 0.364341
v 8.973359 38.416611 -0.635659
v 8.973359 38.416611 0.364341
v 7.533006 39.904137 -0.635659
v 7.533006 39.904137 0.364341
v 5.852988 41.114464 -0.635659
v 5.852988 41.114464 0.364341
v 3.985924 42.009686 -0.635659
v 3.985924 42.009686 0.364341
v 1.990288 42.561760 -0.635659
v 1.990288 42.561760 0.364341
vt 0.848601 0.017182
vt 0.848601 0.098582
vt 0.824061 0.017182
vt 0.824061 0.098582
vt 0.824061 0.181708
vt 0.848601 0.181708
vt 0.848601 0.265829
vt 0.824061 0.265829
vt 0.848601 0.350205
vt 0.824061 0.350205
vt 0.848601 0.434094
vt 0.824061 0.434094
vt 0.848601 0.516758
vt 0.824061 0.516758
vt 0.848601 0.597470
vt 0.824061 0.597470
vt 0.000000 0.000000
vt 0.000000 0.000000
vt 0.000000 0.000000
vt 0.000000 0.000000
vt 0.000000 0.000000
vt 0.000000 0.000000
vt 0.000000 0.000000
vt 0.000000 0.000000
vt 0.000000 0.000000
vt 0.000000 0.000000
vt 0.000000 0.000000
vt 0.000000 0.000000
vt 0.000000 0.000000
vt 0.000000 0.000000
vt 0.000000 0.000000
vt 0.000000 0.000000
vt 0.000000 0.000000
vt 0.000000 0.000000
vt 0.000000 0.000000
vt 0.000000 0.000000
vt 0.000000 0.000000
vt 0.824061 0.004174
vt 0.848601 0.008374
vt 0.824061 0.008374
vt 0.824061 0.012809
vt 0.848601 0.012809
vt 0.000000 0.000000
vt 0.000000 0.000000
vt 0.000000 0.000000
vt 0.000000 0.000000
vt 0.000000 0.000000
vt 0.000000 0.000000
vt 0.000000 0.000000
vt 0.000000 0.000000
vt 0.000000 0.000000
vt 0.000000 0.000000
vt 0.000000 0.000000
vt 0.000000 0.000000
vt 0.000000 0.000000
vt 0.000000 0.000000
vt 0.881490 0.290648
vt 0.881490 0.336404
vt 0.856950 0.290648
vt 0.856950 0.336404
vt 0.000000 0.000000
vt 0.000000 0.000000
vt 0.000000 0.000000
vt 0.000000 0.000000
vt 0.000000 0.000000
vt 0.000000 0.000000
vt 0.000000 0.000000
vt 0.000000 0.000000
vt 0.000000 0.000000
vt 0.000000 0.000000
vt 0.000000 0.000000
vt 0.000000 0.000000
vt 0.000000 0.000000
vt 0.000000 0.000000
vt 0.000000 0.000000
vt 0.000000 0.000000
vt 0.000000 0.000000
vt 0.000000 0.000000
vt 0.000000 0.000000
vt 0.000000 0.000000
vt 0.000000 0.000000
vt 0.000000 0.000000
vt 0.000000 0.000000
vt 0.000000 0.000000
vt 0.848601 0.645676
vt 0.824061 0.645676
vt 0.848601 0.695959
vt 0.824061 0.695959
vt 0.848601 0.746744
vt 0.824061 0.746744
vt 0.848601 0.796442
vt 0.824061 0.796442
vt 0.848601 0.843494
vt 0.824061 0.843494
vt 0.848601 0.886429
vt 0.824061 0.886429
vt 0.848601 0.923900
vt 0.824061 0.923900
vt 0.856950 0.004174
vt 0.881490 0.004174
vt 0.881490 0.045485
vt 0.856950 0.045485
vt 0.881490 0.091365
vt 0.856950 0.091365
vt 0.881490 0.140376
vt 0.856950 0.140376
vt 0.881490 0.190983
vt 0.856950 0.190983
vt 0.881490 0.241602
vt 0.856950 0.241602
vt 0.766920 0.622869
vt 0.815712 0.004175
vt 0.815712 0.637053
vt 0.000000 0.000000
vt 0.000000 0.000000
vt 0.760124 0.067663
vt 0.721390 0.600307
vt 0.680552 0.570074
vt 0.698832 0.125664
vt 0.645681 0.533113
vt 0.617872 0.490587
vt 0.661043 0.159634
vt 0.597996 0.443823
vt 0.629837 0.199734
vt 0.586674 0.394287
vt 0.606186 0.244709
vt 0.584263 0.343533
vt 0.590836 0.293146
vt 0.000000 0.000000
vt 0.000000 0.000000
vt 0.000000 0.000000
vt 0.000000 0.000000
vt 0.000000 0.000000
vt 0.586469 0.645401
vt 0.586469 0.666168
vt 0.584261 0.649262
vt 0.606006 0.645401
vt 0.606006 0.654221
vt 0.605431 0.649811
vt 0.119776 0.520901
vt 0.017433 0.203220
vt 0.163086 0.547470
vt 0.037086 0.156364
vt 0.064693 0.113705
vt 0.006346 0.252811
vt 0.081827 0.487106
vt 0.004175 0.303577
vt 0.050430 0.447155
vt 0.010986 0.353931
vt 0.026567 0.402294
vt 0.233862 0.593426
vt 0.099388 0.076580
vt 0.140083 0.046154
vt 0.300022 0.645805
vt 0.185505 0.023376
vt 0.522917 0.558807
vt 0.234346 0.009361
vt 0.536098 0.475456
vt 0.284893 0.004173
vt 0.335564 0.007980
vt 0.557032 0.393711
vt 0.384769 0.020660
vt 0.430969 0.041813
vt 0.570889 0.344822
vt 0.472717 0.070778
vt 0.575912 0.294258
vt 0.508705 0.106651
vt 0.571943 0.243603
vt 0.537806 0.148304
vt 0.559107 0.194439
vt 0.360983 0.704155
vt 0.517603 0.643024
vt 0.416208 0.767960
vt 0.520201 0.727371
vt 0.465214 0.836655
vt 0.530689 0.811100
vt 0.507568 0.909641
vt 0.548977 0.893482
vt 0.542900 0.986275
vt 0.574902 0.973785
vt 0.565065 0.995827
vt 0.568964 0.993687
vt 0.572184 0.990616
vt 0.574507 0.986824
vt 0.575777 0.982563
vt 0.575912 0.978115
vt 0.000000 0.000000
vt 0.597082 0.645401
vt 0.597082 0.662450
vt 0.595393 0.658336
vt 0.594817 0.653925
vt 0.595393 0.649515
vn 0.9982 -0.0598 0.0000
vn 0.9882 -0.1531 0.0000
vn 0.9695 -0.2450 0.0000
vn 0.9423 -0.3347 0.0000
vn 0.9068 -0.4216 0.0000
vn 0.8633 -0.5047 0.0000
vn 0.8122 -0.5833 0.0000
vn -0.9898 -0.1423 0.0000
vn -0.9201 -0.3916 0.0000
vn -0.7887 -0.6147 0.0000
vn -0.6045 -0.7966 -0.0000
vn -0.3797 -0.9251 -0.0000
vn -0.1295 -0.9916 -0.0000
vn 0.1295 -0.9916 -0.0000
vn 0.3797 -0.9251 -0.0000
vn 0.6045 -0.7966 -0.0000
vn 0.7887 -0.6147 0.0000
vn 0.9201 -0.3916 0.0000
vn 0.9898 -0.1423 0.0000
vn -0.8122 -0.5833 0.0000
vn -0.8633 -0.5047 0.0000
vn -0.9068 -0.4216 0.0000
vn -0.9423 -0.3347 0.0000
vn -0.9695 -0.2450 0.0000
vn -0.9882 -0.1531 0.0000
vn -0.9982 -0.0598 0.0000
vn -0.0926 0.9957 0.0000
vn -0.2666 0.9638 0.0000
vn -0.4324 0.9017 0.0000
vn -0.5845 0.8114 0.0000
vn -0.7184 0.6956 0.0000
vn -0.8298 0.5581 0.0000
vn -0.9152 0.4031 0.0000
vn -0.9719 0.2354 0.0000
vn -0.9982 0.0604 0.0000
vn -0.9932 -0.1165 0.0000
vn -0.9571 -0.2897 0.0000
vn -0.8910 -0.4539 0.0000
vn -0.7971 -0.6039 0.0000
vn 0.7971 -0.6039 0.0000
vn 0.8910 -0.4539 0.0000
vn 0.9571 -0.2897 0.0000
vn 0.9932 -0.1165 0.0000
vn 0.9982 0.0604 0.0000
vn 0.9719 0.2354 0.0000
vn 0.9152 0.4031 0.0000
vn 0.8298 0.5581 0.0000
vn 0.7184 0.6956 0.0000
vn 0.5845 0.8114 0.0000
vn 0.4324 0.9017 0.0000
vn 0.2666 0.9638 0.0000
vn 0.0926 0.9957 0.0000
vn 0.0000 0.0000 -1.0000
vn 0.0000 -0.0000 1.0000
usemtl None
s 1
f 1/1/1 2/2/1 3/3/1
f 3/3/1 2/2/1 4/4/1
f 4/4/2 2/2/2 5/5/2
f 5/5/2 2/2/2 6/6/2
f 5/5/3 6/6/3 7/7/3
f 5/5/3 7/7/3 8/8/3
f 8/8/4 7/7/4 9/9/4
f 8/8/4 9/9/4 10/10/4
f 10/10/5 9/9/5 11/11/5
f 10/10/5 11/11/5 12/12/5
f 12/12/6 11/11/6 13/13/6
f 12/12/6 13/13/6 14/14/6
f 14/14/7 13/13/7 15/15/7
f 14/14/7 15/15/7 16/16/7
f 17/17/8 18/18/8 19/19/8
f 19/19/8 18/18/8 20/20/8
f 20/20/9 18/18/9 21/21/9
f 20/20/9 21/21/9 22/22/9
f 22/22/10 21/21/10 23/23/10
f 22/22/10 23/23/10 24/24/10
f 24/24/11 23/23/11 25/25/11
f 24/24/11 25/25/11 26/26/11
f 26/26/12 25/25/12 27/27/12
f 26/26/12 27/27/12 28/28/12
f 28/28/13 27/27/13 29/29/13
f 28/28/13 29/29/13 30/30/13
f 30/30/14 29/29/14 31/31/14
f 30/30/14 31/31/14 32/32/14
f 32/32/15 31/31/15 33/33/15
f 32/32/15 33/33/15 34/34/15
f 34/34/16 33/33/16 35/35/16
f 34/34/16 35/35/16 36/36/16
f 36/36/17 35/35/17 37/37/17
f 36/38/17 37/39/17 38/40/17
f 38/40/18 37/39/18 39/41/18
f 39/41/18 37/39/18 40/42/18
f 39/41/19 40/42/19 3/3/19
f 3/3/19 40/42/19 1/1/19
f 41/43/20 42/44/20 43/45/20
f 43/45/20 42/44/20 44/46/20
f 44/46/21 42/44/21 45/47/21
f 45/47/21 42/44/21 46/48/21
f 45/47/22 46/48/22 47/49/22
f 45/47/22 47/49/22 48/50/22
f 48/50/23 47/49/23 49/51/23
f 48/50/23 49/51/23 50/52/23
f 50/52/24 49/51/24 51/53/24
f 50/52/24 51/53/24 52/54/24
f 52/54/25 51/53/25 53/55/25
f 52/54/25 53/55/25 54/56/25
f 54/56/26 53/55/26 17/17/26
f 54/56/26 17/17/26 19/19/26
f 55/57/27 56/58/27 57/59/27
f 57/59/27 56/58/27 58/60/27
f 58/61/28 56/62/28 59/63/28
f 58/61/28 59/63/28 60/64/28
f 60/64/29 59/63/29 61/65/29
f 60/64/29 61/65/29 62/66/29
f 62/66/30 61/65/30 63/67/30
f 62/66/30 63/67/30 64/68/30
f 64/68/31 63/67/31 65/69/31
f 64/68/31 65/69/31 66/70/31
f 66/70/32 65/69/32 67/71/32
f 66/70/32 67/71/32 68/72/32
f 68/72/33 67/71/33 69/73/33
f 68/72/33 69/73/33 70/74/33
f 70/74/34 69/73/34 71/75/34
f 70/74/34 71/75/34 72/76/34
f 72/76/35 71/75/35 73/77/35
f 72/76/35 73/77/35 74/78/35
f 74/78/36 73/77/36 75/79/36
f 74/78/36 75/79/36 76/80/36
f 76/80/37 75/79/37 77/81/37
f 76/80/37 77/81/37 78/82/37
f 78/82/38 77/81/38 79/83/38
f 78/82/38 79/83/38 80/84/38
f 80/84/39 79/83/39 41/43/39
f 80/84/39 41/43/39 43/45/39
f 15/15/40 81/85/40 16/16/40
f 16/16/40 81/85/40 82/86/40
f 82/86/41 81/85/41 83/87/41
f 82/86/41 83/87/41 84/88/41
f 84/88/42 83/87/42 85/89/42
f 84/88/42 85/89/42 86/90/42
f 86/90/43 85/89/43 87/91/43
f 86/90/43 87/91/43 88/92/43
f 88/92/44 87/91/44 89/93/44
f 88/92/44 89/93/44 90/94/44
f 90/94/45 89/93/45 91/95/45
f 90/94/45 91/95/45 92/96/45
f 92/96/46 91/95/46 93/97/46
f 92/96/46 93/97/46 94/98/46
f 94/99/47 93/100/47 95/101/47
f 94/99/47 95/101/47 96/102/47
f 96/102/48 95/101/48 97/103/48
f 96/102/48 97/103/48 98/104/48
f 98/104/49 97/103/49 99/105/49
f 98/104/49 99/105/49 100/106/49
f 100/106/50 99/105/50 101/107/50
f 100/106/50 101/107/50 102/108/50
f 102/108/51 101/107/51 103/109/51
f 102/108/51 103/109/51 104/110/51
f 104/110/52 103/109/52 55/57/52
f 104/110/52 55/57/52 57/59/52
f 103/111/53 11/112/53 55/113/53
f 55/114/53 11/115/53 46/48/53
f 55/114/53 46/48/53 56/62/53
f 56/62/53 46/48/53 42/44/53
f 56/62/53 42/44/53 59/63/53
f 59/63/53 42/44/53 61/65/53
f 61/65/53 42/44/53 41/43/53
f 61/65/53 41/43/53 63/67/53
f 63/67/53 41/43/53 65/69/53
f 65/69/53 41/43/53 79/83/53
f 65/69/53 79/83/53 67/71/53
f 67/71/53 79/83/53 77/81/53
f 67/71/53 77/81/53 69/73/53
f 69/73/53 77/81/53 75/79/53
f 69/73/53 75/79/53 71/75/53
f 71/75/53 75/79/53 73/77/53
f 11/112/53 103/111/53 13/116/53
f 13/116/53 103/111/53 101/117/53
f 13/116/53 101/117/53 99/118/53
f 13/116/53 99/118/53 15/119/53
f 15/119/53 99/118/53 97/120/53
f 15/119/53 97/120/53 95/121/53
f 15/119/53 95/121/53 81/122/53
f 81/122/53 95/121/53 93/123/53
f 81/122/53 93/123/53 83/124/53
f 83/124/53 93/123/53 91/125/53
f 83/124/53 91/125/53 85/126/53
f 85/126/53 91/125/53 89/127/53
f 85/126/53 89/127/53 87/128/53
f 46/48/53 11/115/53 47/49/53
f 47/49/53 11/115/53 9/129/53
f 47/49/53 9/129/53 49/51/53
f 49/51/53 9/129/53 7/130/53
f 49/51/53 7/130/53 51/53/53
f 51/53/53 7/130/53 6/131/53
f 51/53/53 6/131/53 53/55/53
f 53/55/53 6/131/53 2/132/53
f 53/55/53 2/132/53 17/17/53
f 17/17/53 2/132/53 1/133/53
f 17/17/53 1/133/53 29/29/53
f 29/29/53 1/133/53 31/31/53
f 31/134/53 1/135/53 33/136/53
f 33/33/53 1/133/53 35/35/53
f 35/35/53 1/133/53 37/37/53
f 37/137/53 1/138/53 40/139/53
f 29/29/53 27/27/53 17/17/53
f 17/17/53 27/27/53 25/25/53
f 17/17/53 25/25/53 23/23/53
f 23/23/53 21/21/53 17/17/53
f 17/17/53 21/21/53 18/18/53
f 82/140/54 96/141/54 16/142/54
f 16/142/54 96/141/54 98/143/54
f 16/142/54 98/143/54 100/144/54
f 96/141/54 82/140/54 94/145/54
f 94/145/54 82/140/54 84/146/54
f 94/145/54 84/146/54 92/147/54
f 92/147/54 84/146/54 86/148/54
f 92/147/54 86/148/54 90/149/54
f 90/149/54 86/148/54 88/150/54
f 16/142/54 100/144/54 14/151/54
f 14/151/54 100/144/54 102/152/54
f 14/151/54 102/152/54 104/153/54
f 14/151/54 104/153/54 12/154/54
f 12/154/54 104/153/54 57/155/54
f 12/154/54 57/155/54 45/156/54
f 45/156/54 57/155/54 58/157/54
f 45/156/54 58/157/54 44/158/54
f 44/158/54 58/157/54 60/159/54
f 44/158/54 60/159/54 62/160/54
f 44/158/54 62/160/54 43/161/54
f 43/161/54 62/160/54 64/162/54
f 43/161/54 64/162/54 66/163/54
f 43/161/54 66/163/54 80/164/54
f 80/164/54 66/163/54 68/165/54
f 80/164/54 68/165/54 78/166/54
f 78/166/54 68/165/54 70/167/54
f 78/166/54 70/167/54 76/168/54
f 76/168/54 70/167/54 72/169/54
f 76/168/54 72/169/54 74/170/54
f 12/154/54 45/156/54 10/171/54
f 10/171/54 45/156/54 48/172/54
f 10/171/54 48/172/54 8/173/54
f 8/173/54 48/172/54 50/174/54
f 8/173/54 50/174/54 5/175/54
f 5/175/54 50/174/54 52/176/54
f 5/175/54 52/176/54 4/177/54
f 4/177/54 52/176/54 54/178/54
f 4/177/54 54/178/54 3/179/54
f 3/179/54 54/178/54 19/180/54
f 3/179/54 19/180/54 30/181/54
f 30/181/54 19/180/54 28/182/54
f 28/182/54 19/180/54 26/183/54
f 26/183/54 19/180/54 24/184/54
f 24/184/54 19/180/54 22/185/54
f 22/185/54 19/180/54 20/186/54
f 30/30/54 32/32/54 3/187/54
f 3/187/54 32/32/54 34/34/54
f 3/188/54 34/189/54 36/190/54
f 36/190/54 38/191/54 3/188/54
f 3/188/54 38/191/54 39/192/54
